<svg xmlns="http://www.w3.org/2000/svg" width="170" height="26" viewBox="0 0 170 26" fill="none"><g clip-path="url(#clip0_1159_2808)"><path d="M3.1344 9.33118H0.786362C0.352066 9.33118 0 9.68376 0 10.1187V12.7732C0 13.2081 0.352066 13.5607 0.786362 13.5607H3.1344C3.5687 13.5607 3.92077 13.2081 3.92077 12.7732V10.1187C3.92077 9.68376 3.5687 9.33118 3.1344 9.33118Z" fill="#C6C2F9"></path><path d="M22.9017 9.33118H20.5537C20.1194 9.33118 19.7673 9.68376 19.7673 10.1187V12.7732C19.7673 13.2081 20.1194 13.5607 20.5537 13.5607H22.9017C23.336 13.5607 23.6881 13.2081 23.6881 12.7732V10.1187C23.6881 9.68376 23.336 9.33118 22.9017 9.33118Z" fill="#C6C2F9"></path><path d="M16.94 6.43115L15.354 0.626587H3.40836C2.25091 0.626587 1.31213 1.56673 1.31213 2.72809V19.6573C1.31213 20.3121 1.59487 20.9271 2.09408 21.2744C3.70656 22.4004 8.80908 25.3734 8.80908 25.3734V21.7234H20.2798C21.4373 21.7234 22.3782 20.7833 22.3782 19.6219V7.65887L16.9422 6.43337L16.94 6.43115Z" fill="white"></path><path opacity="0.7" d="M16.94 6.43115L15.354 0.626587H3.40836C2.25091 0.626587 1.31213 1.56673 1.31213 2.72809V19.6573C1.31213 20.3121 1.59487 20.9271 2.09408 21.2744C3.70656 22.4004 8.80908 25.3734 8.80908 25.3734V21.7234H20.2798C21.4373 21.7234 22.3782 20.7833 22.3782 19.6219V7.65887L16.9422 6.43337L16.94 6.43115Z" fill="url(#paint0_linear_1159_2808)"></path><path opacity="0.2" d="M16.973 7.60352L22.3759 8.85999V7.65882L16.973 7.60352Z" fill="url(#paint1_linear_1159_2808)"></path><path d="M22.3759 7.65887H17.4523C16.2949 7.65887 15.3539 6.71873 15.3539 5.55737V0.626587" fill="url(#paint2_linear_1159_2808)"></path><path d="M15.1419 9.32239H15.0623C14.6171 9.32239 14.2561 9.68388 14.2561 10.1298V12.7445C14.2561 13.1904 14.6171 13.5519 15.0623 13.5519H15.1419C15.5871 13.5519 15.9481 13.1904 15.9481 12.7445V10.1298C15.9481 9.68388 15.5871 9.32239 15.1419 9.32239Z" fill="#0D082D"></path><path d="M8.62563 9.32239H8.54611C8.10083 9.32239 7.73987 9.68388 7.73987 10.1298V12.7445C7.73987 13.1904 8.10083 13.5519 8.54611 13.5519H8.62563C9.0709 13.5519 9.43187 13.1904 9.43187 12.7445V10.1298C9.43187 9.68388 9.0709 9.32239 8.62563 9.32239Z" fill="#0D082D"></path><path d="M38.9802 17.7438H34.8319V4.96228H41.6684C46.4926 4.96228 48.3967 6.58375 48.3967 9.9351C48.3967 13.1073 46.3137 14.6955 41.8274 14.6779H38.9802V17.7438ZM38.9802 11.3442H41.6861C43.5548 11.3442 44.16 10.9881 44.16 9.95279C44.16 8.70516 43.4311 8.47289 41.6331 8.47289H38.9802V11.342V11.3442Z" fill="black"></path><path d="M49.8213 7.40451H53.435L53.9519 10.382C54.3605 8.27829 55.571 7.24524 57.9389 7.24524H59.061V11.5058H57.263C56.4435 11.5058 55.8383 11.6119 55.412 11.7734C54.5571 12.1473 54.2899 12.9857 54.2899 14.4833V17.7461H49.8213V7.40451Z" fill="black"></path><path d="M62.7278 17.4231C60.6978 16.5317 59.8253 14.9102 59.8253 12.6627C59.8253 11.5389 60.1103 10.5767 60.6625 9.73829C61.7846 8.06151 63.8852 7.09924 66.7502 7.09924C68.2102 7.09924 69.4207 7.33151 70.4699 7.77615C72.5529 8.70302 73.6573 10.3975 73.6573 12.6605C73.6573 13.7665 73.3901 14.6934 72.8909 15.5119C71.8416 17.1334 69.8293 18.0779 66.6972 18.0779C65.0604 18.0779 63.724 17.8634 62.7278 17.4187V17.4231ZM69.3323 12.6627C69.3323 11.1651 68.4952 10.4174 66.7524 10.4174C65.0096 10.4174 64.1702 11.1651 64.1702 12.6627C64.1702 14.0541 65.025 14.731 66.7325 14.731C68.5482 14.731 69.3323 14.001 69.3323 12.6627Z" fill="black"></path><path d="M80.2973 17.9761C79.3011 17.9761 78.3932 17.7969 77.5737 17.3877C75.9369 16.6024 74.8855 15.0517 74.8855 12.6825C74.8855 11.5057 75.1351 10.5257 75.5791 9.68735C76.54 8.04817 78.232 7.17439 80.4033 7.17439C82.272 7.17439 83.5355 7.76281 84.302 9.01044V4.1062H88.4679V17.7438H84.7305L84.4809 15.9432C83.7873 17.2085 82.4885 17.9761 80.2973 17.9761ZM84.3925 12.6626C84.3925 11.2004 83.4317 10.4173 81.7927 10.4173C80.0477 10.4173 79.2282 11.2026 79.2282 12.6626C79.2282 14.1226 80.083 14.7309 81.7927 14.7309C83.5024 14.7309 84.3925 14.054 84.3925 12.6626Z" fill="black"></path><path d="M94.6638 18.0293C91.7083 18.0293 90.2306 16.2817 90.2306 13.3241V7.40674H94.4672V12.1672C94.4672 13.771 94.9488 14.4855 96.4795 14.4855C97.8314 14.4855 98.4918 13.6825 98.4918 12.061V7.40895H102.799V17.7483H99.1501L98.7414 15.3416C98.1715 16.963 96.908 18.0337 94.666 18.0337L94.6638 18.0293Z" fill="black"></path><path d="M111.096 18.0824C109.459 18.0824 108.123 17.8678 107.126 17.4231C105.096 16.5317 104.224 14.9102 104.224 12.6627C104.224 11.5389 104.509 10.5767 105.061 9.73829C106.183 8.06151 108.284 7.09924 111.149 7.09924C115.421 7.09924 117.859 8.98838 118.162 12.019H113.64C113.426 10.9505 112.679 10.4152 111.149 10.4152C109.439 10.4152 108.567 11.1629 108.567 12.6605C108.567 14.0519 109.421 14.7288 111.131 14.7288C112.732 14.7288 113.446 14.1581 113.64 13.1073H118.162C117.965 16.1379 115.653 18.0801 111.096 18.0801V18.0824Z" fill="black"></path><path d="M126.065 17.7439C124.784 17.7439 123.786 17.5824 123.075 17.2263C121.65 16.5317 121.153 15.0872 121.153 12.6273V10.9151H118.75V7.61688C119.443 7.59919 120.048 7.56379 120.53 7.4377C121.153 7.27622 121.402 6.99307 121.617 6.40465C121.813 5.88702 121.849 5.13932 121.866 4.5509H125.16V7.40231H128.97V10.9151H125.16V12.2336C125.16 12.8043 125.213 13.2489 125.301 13.5343C125.515 14.1227 126.05 14.2643 127.187 14.2643H128.968V17.7417H126.065V17.7439Z" fill="black"></path><path d="M134.468 16.1401L134.236 17.7438H130.481V4.1062H134.665V9.11662C135.449 7.8513 136.854 7.17439 138.74 7.17439C139.809 7.17439 140.715 7.38897 141.534 7.79821C143.136 8.63659 144.061 10.2581 144.061 12.6471C144.061 13.7886 143.812 14.7332 143.315 15.5539C142.283 17.1222 140.573 17.9783 138.634 17.9783C136.463 17.9783 135.162 17.3191 134.468 16.1423V16.1401ZM139.736 12.6626C139.736 11.165 138.899 10.4173 137.154 10.4173C135.517 10.4173 134.572 11.2026 134.572 12.6626C134.572 14.1226 135.427 14.7309 137.136 14.7309C138.952 14.7309 139.736 14.001 139.736 12.6626Z" fill="black"></path><path d="M148.194 17.4231C146.164 16.5317 145.292 14.9102 145.292 12.6627C145.292 11.5389 145.576 10.5767 146.129 9.73829C147.251 8.06151 149.351 7.09924 152.216 7.09924C153.676 7.09924 154.887 7.33151 155.936 7.77615C158.019 8.70302 159.121 10.3975 159.121 12.6605C159.121 13.7665 158.854 14.6934 158.355 15.5119C157.306 17.1334 155.293 18.0779 152.161 18.0779C150.524 18.0779 149.188 17.8634 148.192 17.4187L148.194 17.4231ZM154.799 12.6627C154.799 11.1651 153.961 10.4174 152.216 10.4174C150.471 10.4174 149.634 11.1651 149.634 12.6627C149.634 14.0541 150.489 14.731 152.199 14.731C154.014 14.731 154.799 14.001 154.799 12.6627Z" fill="black"></path><path d="M167.1 17.7439C165.819 17.7439 164.82 17.5824 164.109 17.2263C162.684 16.5317 162.187 15.0872 162.187 12.6273V10.9151H159.784V7.61688C160.478 7.59919 161.083 7.56379 161.564 7.4377C162.187 7.27622 162.437 6.99307 162.651 6.40465C162.848 5.88702 162.883 5.13932 162.901 4.5509H166.194V7.40231H170.004V10.9151H166.194V12.2336C166.194 12.8043 166.247 13.2489 166.335 13.5343C166.55 14.1227 167.084 14.2643 168.222 14.2643H170.002V17.7417H167.1V17.7439Z" fill="black"></path></g><defs><linearGradient id="paint0_linear_1159_2808" x1="18.7071" y1="22.2344" x2="3.32022" y2="3.92703" gradientUnits="userSpaceOnUse"><stop offset="0.34" stop-color="white"></stop><stop offset="1" stop-color="#7467FC"></stop></linearGradient><linearGradient id="paint1_linear_1159_2808" x1="16.973" y1="8.23175" x2="22.3759" y2="8.23175" gradientUnits="userSpaceOnUse"><stop offset="0.51" stop-color="#1B3BEF"></stop><stop offset="1" stop-color="#7467FC"></stop></linearGradient><linearGradient id="paint2_linear_1159_2808" x1="16.3943" y1="6.61697" x2="19.562" y2="3.45385" gradientUnits="userSpaceOnUse"><stop offset="0.37" stop-color="#1B3BEF"></stop><stop offset="1" stop-color="#7467FC"></stop></linearGradient><clipPath id="clip0_1159_2808"><rect width="170" height="24.7468" fill="white" transform="translate(0 0.626587)"></rect></clipPath></defs></svg>